<svg width="508" height="508" viewBox="0 0 508 508" fill="none" xmlns="http://www.w3.org/2000/svg">
<g filter="url(#filter0_d_108_513)">
<rect x="4" y="4" width="500" height="500" rx="85" fill="#191919"/>
<path fill-rule="evenodd" clip-rule="evenodd" d="M412.348 261.667C411.18 259.19 408.335 253.032 399.462 252.884C397.936 252.824 395.841 253.25 393.584 254.249C379.75 262.854 325.124 298.416 249.988 296.369C239.283 296.461 176.356 295.873 115.084 255.245C111.397 252.818 108.234 252.641 105.354 253.032C100.475 253.945 96.8917 256.562 94.8203 261.407C91.4198 271.751 89.0885 285.195 86.0571 294.147C85.7155 295.199 86.9265 297.355 89.1376 296.173C91.7874 293.995 102.885 279.081 104.943 276.33C106.529 274.428 108.506 274.955 109.307 275.551C123.004 295.753 158.146 366.942 253.23 368C350.564 366.699 384.51 294.147 397.69 275.551C398.503 275.004 400.587 274.245 402.361 276.701C407.364 283.388 415.359 294.009 417.862 296.173C419.393 297.043 421.265 296.173 420.969 294.201C419.695 290.175 416.194 275.034 412.348 261.667Z" fill="#FF7000"/>
<ellipse cx="209.066" cy="193.032" rx="30.2614" ry="53.0318" fill="#FF7000"/>
<ellipse rx="30.2614" ry="53.0318" transform="matrix(-1 0 0 1 295.62 193.032)" fill="#FF7000"/>
</g>
<defs>
<filter id="filter0_d_108_513" x="0" y="0" width="508" height="508" filterUnits="userSpaceOnUse" color-interpolation-filters="sRGB">
<feFlood flood-opacity="0" result="BackgroundImageFix"/>
<feColorMatrix in="SourceAlpha" type="matrix" values="0 0 0 0 0 0 0 0 0 0 0 0 0 0 0 0 0 0 127 0" result="hardAlpha"/>
<feOffset/>
<feGaussianBlur stdDeviation="2"/>
<feComposite in2="hardAlpha" operator="out"/>
<feColorMatrix type="matrix" values="0 0 0 0 0.4125 0 0 0 0 0.4125 0 0 0 0 0.4125 0 0 0 0.52 0"/>
<feBlend mode="normal" in2="BackgroundImageFix" result="effect1_dropShadow_108_513"/>
<feBlend mode="normal" in="SourceGraphic" in2="effect1_dropShadow_108_513" result="shape"/>
</filter>
</defs>
</svg>
