<svg width="508" height="508" viewBox="0 0 508 508" fill="none" xmlns="http://www.w3.org/2000/svg">
<path fill-rule="evenodd" clip-rule="evenodd" d="M52 0C23.2812 0 0 23.2812 0 52V456C0 484.719 23.2812 508 52 508H456C484.719 508 508 484.719 508 456V52C508 23.2812 484.719 0 456 0H52ZM74 38C54.1178 38 38 54.1177 38 74V434C38 453.882 54.1177 470 74 470H434C453.882 470 470 453.882 470 434V74C470 54.1178 453.882 38 434 38H74Z" fill="#191919"/>
<path fill-rule="evenodd" clip-rule="evenodd" d="M412.348 261.667C411.18 259.19 408.335 253.032 399.462 252.884C397.936 252.824 395.841 253.25 393.584 254.249C379.75 262.854 325.124 298.416 249.988 296.369C239.283 296.461 176.356 295.873 115.084 255.245C111.397 252.818 108.234 252.641 105.354 253.032C100.475 253.945 96.8917 256.562 94.8203 261.407C91.4198 271.751 89.0885 285.195 86.0571 294.147C85.7155 295.199 86.9265 297.355 89.1376 296.173C91.7874 293.995 102.885 279.081 104.943 276.33C106.529 274.428 108.506 274.955 109.307 275.551C123.004 295.753 158.146 366.942 253.23 368C350.564 366.699 384.51 294.147 397.69 275.551C398.503 275.004 400.587 274.245 402.361 276.701C407.364 283.388 415.359 294.009 417.862 296.173C419.393 297.043 421.265 296.173 420.969 294.201C419.695 290.175 416.194 275.034 412.348 261.667Z" fill="#191919"/>
<path d="M209.066 246.064C225.779 246.064 239.327 222.321 239.327 193.032C239.327 163.743 225.779 140 209.066 140C192.353 140 178.805 163.743 178.805 193.032C178.805 222.321 192.353 246.064 209.066 246.064Z" fill="#191919"/>
<path d="M295.62 246.064C278.907 246.064 265.359 222.321 265.359 193.032C265.359 163.743 278.907 140 295.62 140C312.333 140 325.881 163.743 325.881 193.032C325.881 222.321 312.333 246.064 295.62 246.064Z" fill="#191919"/>
</svg>
