<svg width="500" height="500" viewBox="0 0 500 500" fill="none" xmlns="http://www.w3.org/2000/svg">
<path fill-rule="evenodd" clip-rule="evenodd" d="M85 0H415C461.944 0 500 38.0558 500 85V415C500 461.944 461.944 500 415 500H85C38.0558 500 0 461.944 0 415V85C0 38.0558 38.0558 0 85 0ZM408.325 257.618L408.348 257.667C410.552 265.326 412.642 273.567 414.265 279.967L414.265 279.968L414.266 279.97C415.475 284.738 416.425 288.482 416.969 290.201C417.265 292.173 415.393 293.043 413.862 292.173C411.359 290.009 403.364 279.388 398.361 272.701C396.587 270.245 394.503 271.004 393.69 271.551C392.252 273.581 390.566 276.253 388.577 279.405C372.345 305.135 335.941 362.841 249.23 364C162.962 363.04 126.036 304.352 109.701 278.389C108.031 275.736 106.577 273.424 105.307 271.551C104.506 270.955 102.529 270.428 100.943 272.33L100.617 272.766C97.9169 276.379 87.6699 290.092 85.1376 292.173C82.9265 293.355 81.7155 291.199 82.0571 290.147C83.5582 285.714 84.8876 280.18 86.2601 274.466C87.6594 268.641 89.1036 262.629 90.8203 257.407C92.8917 252.562 96.475 249.945 101.354 249.032C104.234 248.641 107.397 248.818 111.084 251.245C172.356 291.873 235.283 292.461 245.988 292.369C319.007 294.358 372.655 260.828 388.318 251.039C388.772 250.755 389.194 250.491 389.584 250.249C391.841 249.25 393.936 248.824 395.462 248.884C404.277 249.031 407.143 255.11 408.325 257.618ZM205.066 242.064C221.779 242.064 235.327 218.321 235.327 189.032C235.327 159.743 221.779 136 205.066 136C188.353 136 174.805 159.743 174.805 189.032C174.805 218.321 188.353 242.064 205.066 242.064ZM261.359 189.032C261.359 218.321 274.907 242.064 291.62 242.064C308.333 242.064 321.881 218.321 321.881 189.032C321.881 159.743 308.333 136 291.62 136C274.907 136 261.359 159.743 261.359 189.032Z" fill="#191919"/>
</svg>
