<svg width="500" height="500" viewBox="0 0 500 500" fill="none" xmlns="http://www.w3.org/2000/svg">
<path d="M0 90C0 40.2944 40.2944 0 90 0H410C459.706 0 500 40.2944 500 90V410C500 459.706 459.706 500 410 500H90C40.2944 500 0 459.706 0 410V90Z" fill="#FF7000"/>
<g filter="url(#filter0_d_345_3297)">
<path fill-rule="evenodd" clip-rule="evenodd" d="M274.571 348.609C266.02 355.212 265.045 367.756 272.472 375.6C278.914 382.404 289.462 383.224 296.877 377.498L313.045 365.014C318.021 361.172 322.899 357.21 327.676 353.132L350.37 378.336C357.39 386.133 369.402 386.763 377.198 379.742C384.995 372.722 385.625 360.71 378.604 352.914L355.324 327.058C360.236 321.944 365.008 316.692 369.633 311.308L381.825 297.118C387.918 290.026 387.663 279.475 381.235 272.685C373.797 264.83 361.197 265.134 354.147 273.339L341.916 287.576C338.32 291.761 334.626 295.858 330.838 299.864L309.15 275.776C302.129 267.979 290.118 267.35 282.321 274.37C274.524 281.39 273.894 293.402 280.915 301.199L303.248 326.003C299.197 329.439 295.066 332.784 290.857 336.034L274.571 348.609Z" fill="#191919"/>
</g>
<g filter="url(#filter1_d_345_3297)">
<path fill-rule="evenodd" clip-rule="evenodd" d="M250 106.998C321.237 106.889 390.039 132.913 443.373 180.138C450.963 186.865 451.48 198.423 444.408 205.495L404.905 244.998H284.328C265.353 244.998 249.828 260.523 249.828 279.498V393.003C245.515 393.003 241.03 391.278 237.753 388L55.5925 205.495C48.52 198.423 49.0375 186.865 56.6275 180.138C108.205 134.598 175.825 106.998 250 106.998ZM216.596 168.997C197.819 168.997 182.596 184.22 182.596 202.997C182.596 221.775 197.819 236.997 216.596 236.997C235.374 236.997 250.596 221.775 250.596 202.997C250.596 184.22 235.374 168.997 216.596 168.997Z" fill="#191919"/>
</g>
<defs>
<filter id="filter0_d_345_3297" x="263.475" y="265.984" width="126.756" height="125.638" filterUnits="userSpaceOnUse" color-interpolation-filters="sRGB">
<feFlood flood-opacity="0" result="BackgroundImageFix"/>
<feColorMatrix in="SourceAlpha" type="matrix" values="0 0 0 0 0 0 0 0 0 0 0 0 0 0 0 0 0 0 127 0" result="hardAlpha"/>
<feOffset dy="3"/>
<feGaussianBlur stdDeviation="2"/>
<feComposite in2="hardAlpha" operator="out"/>
<feColorMatrix type="matrix" values="0 0 0 0 0 0 0 0 0 0 0 0 0 0 0 0 0 0 0.25 0"/>
<feBlend mode="normal" in2="BackgroundImageFix" result="effect1_dropShadow_345_3297"/>
<feBlend mode="normal" in="SourceGraphic" in2="effect1_dropShadow_345_3297" result="shape"/>
</filter>
<filter id="filter1_d_345_3297" x="46.5962" y="106.997" width="406.808" height="294.005" filterUnits="userSpaceOnUse" color-interpolation-filters="sRGB">
<feFlood flood-opacity="0" result="BackgroundImageFix"/>
<feColorMatrix in="SourceAlpha" type="matrix" values="0 0 0 0 0 0 0 0 0 0 0 0 0 0 0 0 0 0 127 0" result="hardAlpha"/>
<feOffset dy="4"/>
<feGaussianBlur stdDeviation="2"/>
<feComposite in2="hardAlpha" operator="out"/>
<feColorMatrix type="matrix" values="0 0 0 0 0 0 0 0 0 0 0 0 0 0 0 0 0 0 0.25 0"/>
<feBlend mode="normal" in2="BackgroundImageFix" result="effect1_dropShadow_345_3297"/>
<feBlend mode="normal" in="SourceGraphic" in2="effect1_dropShadow_345_3297" result="shape"/>
</filter>
</defs>
</svg>
