<svg width="500" height="500" viewBox="0 0 500 500" fill="none" xmlns="http://www.w3.org/2000/svg">
<mask id="mask0_213_2252" style="mask-type:alpha" maskUnits="userSpaceOnUse" x="0" y="0" width="500" height="500">
<rect width="500" height="500" rx="90" fill="#D9D9D9"/>
</mask>
<g mask="url(#mask0_213_2252)">
<rect width="408.612" height="833.046" transform="matrix(0.707828 0.706384 -0.707828 0.706384 553.195 -22.088)" fill="url(#paint0_linear_213_2252)"/>
<g filter="url(#filter0_d_213_2252)">
<rect width="442.143" height="833.046" transform="matrix(0.707828 0.706384 -0.707828 0.706384 244.653 -330)" fill="#FFC79D"/>
</g>
<g filter="url(#filter1_d_213_2252)">
<path fill-rule="evenodd" clip-rule="evenodd" d="M243.96 350.714L164.373 237.019C115.126 166.667 165.456 69.9999 251.332 69.9999C337.208 69.9999 387.538 166.667 338.292 237.019L258.706 350.714C255.123 355.833 247.542 355.833 243.96 350.714ZM252.812 126C226.026 126 204.312 147.714 204.312 174.5C204.312 201.286 226.026 223 252.812 223H254.812C281.598 223 303.312 201.286 303.312 174.5C303.312 147.714 281.598 126 254.812 126H252.812Z" fill="url(#paint1_linear_213_2252)"/>
</g>
<path d="M540 283.984L427.251 330.13C303.631 380.726 163.903 373.656 46.022 310.839L-40 265" stroke="#191919" stroke-width="48"/>
</g>
<defs>
<filter id="filter0_d_213_2252" x="-353" y="-332" width="918.615" height="916.774" filterUnits="userSpaceOnUse" color-interpolation-filters="sRGB">
<feFlood flood-opacity="0" result="BackgroundImageFix"/>
<feColorMatrix in="SourceAlpha" type="matrix" values="0 0 0 0 0 0 0 0 0 0 0 0 0 0 0 0 0 0 127 0" result="hardAlpha"/>
<feOffset dy="6"/>
<feGaussianBlur stdDeviation="4"/>
<feComposite in2="hardAlpha" operator="out"/>
<feColorMatrix type="matrix" values="0 0 0 0 0 0 0 0 0 0 0 0 0 0 0 0 0 0 0.25 0"/>
<feBlend mode="normal" in2="BackgroundImageFix" result="effect1_dropShadow_213_2252"/>
<feBlend mode="normal" in="SourceGraphic" in2="effect1_dropShadow_213_2252" result="shape"/>
</filter>
<filter id="filter1_d_213_2252" x="141" y="69.9999" width="220.665" height="292.553" filterUnits="userSpaceOnUse" color-interpolation-filters="sRGB">
<feFlood flood-opacity="0" result="BackgroundImageFix"/>
<feColorMatrix in="SourceAlpha" type="matrix" values="0 0 0 0 0 0 0 0 0 0 0 0 0 0 0 0 0 0 127 0" result="hardAlpha"/>
<feOffset dy="4"/>
<feGaussianBlur stdDeviation="2"/>
<feComposite in2="hardAlpha" operator="out"/>
<feColorMatrix type="matrix" values="0 0 0 0 0 0 0 0 0 0 0 0 0 0 0 0 0 0 0.25 0"/>
<feBlend mode="normal" in2="BackgroundImageFix" result="effect1_dropShadow_213_2252"/>
<feBlend mode="normal" in="SourceGraphic" in2="effect1_dropShadow_213_2252" result="shape"/>
</filter>
<linearGradient id="paint0_linear_213_2252" x1="78.0537" y1="429.03" x2="630.685" y2="415.108" gradientUnits="userSpaceOnUse">
<stop stop-color="#FF7000"/>
<stop offset="1" stop-color="#FFE8D7"/>
</linearGradient>
<linearGradient id="paint1_linear_213_2252" x1="251.332" y1="69.9999" x2="251.332" y2="354.553" gradientUnits="userSpaceOnUse">
<stop stop-color="#FF146C"/>
<stop offset="1" stop-color="#FF1145"/>
</linearGradient>
</defs>
</svg>
