<svg width="500" height="500" viewBox="0 0 500 500" fill="none" xmlns="http://www.w3.org/2000/svg">
<path d="M0 90C0 40.2944 40.2944 0 90 0H410C459.706 0 500 40.2944 500 90V410C500 459.706 459.706 500 410 500H90C40.2944 500 0 459.706 0 410V90Z" fill="#FF7000"/>
<ellipse cx="250" cy="140.283" rx="37" ry="35.2835" fill="#191919"/>
<path d="M173.299 240.281L187.11 264.581L200.92 288.881L214.731 313.182C220.586 323.484 235.591 323.007 240.779 312.353L246.021 301.589L263.501 265.696L280.981 229.803L298.461 193.91C299.854 191.306 301.619 189.205 303.626 187.761C305.632 186.317 307.83 185.567 310.056 185.567C312.281 185.567 314.479 186.317 316.486 187.761C318.492 189.205 320.257 191.306 321.65 193.91L409.65 358.884C417.379 373.598 410.542 395 398.055 395H101.948C99.1878 395 96.4817 393.847 94.1334 391.67C91.7851 389.494 89.8874 386.379 88.6529 382.676C87.4183 378.973 86.8956 374.828 87.1436 370.704C87.3915 366.581 88.4001 362.642 90.0565 359.33L149.516 240.281C155.462 228.688 167.353 228.688 173.299 240.281Z" fill="#191919"/>
</svg>
